<svg width="7" height="5" viewBox="0 0 7 5" fill="none" xmlns="http://www.w3.org/2000/svg">
<path id="Vector" d="M3.48633 4.33789C3.4043 4.33789 3.3291 4.32194 3.26074 4.29004C3.19238 4.25814 3.13086 4.21484 3.07617 4.16016L0.164062 1.24805C0.109375 1.19336 0.0683594 1.13184 0.0410156 1.06348C0.0136719 0.995117 0 0.919922 0 0.837891C0 0.682943 0.0569661 0.548503 0.170898 0.43457C0.284831 0.320638 0.419271 0.263672 0.574219 0.263672C0.65625 0.263672 0.731445 0.277344 0.799805 0.304688C0.868164 0.332031 0.929688 0.373047 0.984375 0.427734L3.48633 2.92969L5.98828 0.427734C6.04297 0.373047 6.10449 0.332031 6.17285 0.304688C6.24121 0.277344 6.31641 0.263672 6.39844 0.263672C6.55339 0.263672 6.68783 0.320638 6.80176 0.43457C6.91569 0.548503 6.97266 0.682943 6.97266 0.837891C6.97266 0.919922 6.95898 0.995117 6.93164 1.06348C6.9043 1.13184 6.86328 1.19336 6.80859 1.24805L3.89648 4.16016C3.8418 4.21484 3.78027 4.25814 3.71191 4.29004C3.64355 4.32194 3.56836 4.33789 3.48633 4.33789Z" fill="#526484"/>
</svg>
