<svg width="6" height="9" viewBox="0 0 6 9" fill="none" xmlns="http://www.w3.org/2000/svg">
<path id="Vector" d="M1.49784 8.33887C1.32032 8.33887 1.16629 8.2736 1.03576 8.14307C0.905232 8.01254 0.839966 7.85851 0.839966 7.68099C0.839966 7.58701 0.85563 7.49824 0.886957 7.4147C0.918285 7.33116 0.965276 7.26329 1.02793 7.21108L3.8944 4.32894L1.02793 1.46247C0.975718 1.39982 0.931338 1.32933 0.894789 1.25101C0.85824 1.17269 0.839966 1.09176 0.839966 1.00822C0.839966 0.820257 0.905232 0.661009 1.03576 0.530478C1.16629 0.399946 1.32554 0.334681 1.51351 0.334681C1.59705 0.334681 1.68059 0.350344 1.76413 0.381671C1.84767 0.412999 1.92077 0.459991 1.98342 0.522645L5.3198 3.85903C5.38246 3.92168 5.42945 3.99217 5.46078 4.07049C5.49211 4.14881 5.50777 4.23496 5.50777 4.32894C5.50777 4.42292 5.49211 4.51169 5.46078 4.59523C5.42945 4.67877 5.38246 4.74664 5.3198 4.79886L1.96776 8.1509C1.91554 8.21356 1.84767 8.26055 1.76413 8.29188C1.68059 8.3232 1.59183 8.33887 1.49784 8.33887Z" fill="#8094AE"/>
</svg>
