<svg width="6" height="11" viewBox="0 0 6 11" fill="none" xmlns="http://www.w3.org/2000/svg">
<path id="Vector" d="M5.25586 2.81754L3.08496 0.646637C3.03418 0.595856 2.97705 0.555654 2.91357 0.526031C2.8501 0.496409 2.78027 0.481598 2.7041 0.481598C2.62793 0.481598 2.55811 0.496409 2.49463 0.526031C2.43115 0.555654 2.37402 0.595856 2.32324 0.646637L0.152344 2.81754C0.101562 2.85985 0.0634766 2.91487 0.0380859 2.98257C0.0126953 3.05028 0 3.12222 0 3.19839C0 3.34228 0.0528971 3.46711 0.158691 3.57291C0.264486 3.6787 0.389323 3.7316 0.533203 3.7316C0.609375 3.7316 0.681315 3.7189 0.749023 3.69351C0.816732 3.66812 0.871745 3.63004 0.914062 3.57925L2.1582 2.33511V9.69839C2.1582 9.84227 2.2111 9.96711 2.31689 10.0729C2.42269 10.1787 2.55176 10.2316 2.7041 10.2316C2.85645 10.2316 2.98551 10.1787 3.09131 10.0729C3.1971 9.96711 3.25 9.84227 3.25 9.69839V2.33511L4.49414 3.57925C4.53646 3.62157 4.59147 3.65754 4.65918 3.68716C4.72689 3.71679 4.7946 3.7316 4.8623 3.7316C5.01465 3.7316 5.14372 3.6787 5.24951 3.57291C5.35531 3.46711 5.4082 3.33804 5.4082 3.1857C5.4082 3.10953 5.39339 3.0397 5.36377 2.97623C5.33415 2.91275 5.29818 2.85562 5.25586 2.80484V2.81754Z" fill="#1EE0AC"/>
</svg>
