<svg width="19" height="20" viewBox="0 0 19 20" fill="none" xmlns="http://www.w3.org/2000/svg">
<path id="Vector" d="M18.0347 13.25C17.9878 13.2188 17.605 12.7422 16.8862 11.8203C16.1675 10.8984 15.8081 9.17188 15.8081 6.64062C15.7925 5.79688 15.6128 5.01562 15.269 4.29688C14.9409 3.5625 14.4995 2.92578 13.9448 2.38672C13.3901 1.84766 12.7456 1.42188 12.0112 1.10938C11.2769 0.796875 10.4878 0.640625 9.64404 0.640625C9.61279 0.640625 9.58154 0.640625 9.55029 0.640625C9.51904 0.640625 9.49561 0.648438 9.47998 0.664062C9.44873 0.648438 9.42139 0.640625 9.39795 0.640625C9.37451 0.640625 9.34717 0.640625 9.31592 0.640625C8.47217 0.640625 7.68311 0.796875 6.94873 1.10938C6.21436 1.42188 5.56982 1.84766 5.01514 2.38672C4.46045 2.92578 4.01904 3.5625 3.69092 4.29688C3.34717 5.01562 3.16748 5.78906 3.15186 6.61719V6.64062C3.15186 9.17188 2.79639 10.8984 2.08545 11.8203C1.37451 12.7422 0.995605 13.2188 0.94873 13.25C0.808105 13.3438 0.694824 13.4648 0.608887 13.6133C0.522949 13.7617 0.47998 13.9219 0.47998 14.0938C0.47998 14.375 0.577637 14.6133 0.772949 14.8086C0.968262 15.0039 1.20654 15.1016 1.48779 15.1016H5.51904C5.62842 15.9922 5.97217 16.9219 6.55029 17.8906C7.12842 18.8594 8.10498 19.3438 9.47998 19.3438C10.855 19.3438 11.8315 18.8594 12.4097 17.8906C12.9878 16.9219 13.3315 15.9922 13.4409 15.1016H17.4722C17.7065 15.1016 17.9097 15.0352 18.0815 14.9023C18.2534 14.7695 18.3706 14.6016 18.4331 14.3984V14.375C18.4487 14.3438 18.4604 14.3008 18.4683 14.2461C18.4761 14.1914 18.48 14.1406 18.48 14.0938C18.48 13.9219 18.437 13.7617 18.3511 13.6133C18.2651 13.4648 18.1597 13.3438 18.0347 13.25ZM9.47998 17.3516C8.80811 17.3516 8.33545 17.0859 8.06201 16.5547C7.78857 16.0234 7.62061 15.5391 7.55811 15.1016H11.4019C11.3394 15.5391 11.1714 16.0234 10.8979 16.5547C10.6245 17.0859 10.1519 17.3516 9.47998 17.3516ZM3.64404 13.0859C4.11279 12.2266 4.48389 11.293 4.75732 10.2852C5.03076 9.27734 5.16748 8.22656 5.16748 7.13281C5.16748 7.05469 5.16357 6.96875 5.15576 6.875C5.14795 6.78125 5.14404 6.6875 5.14404 6.59375V6.64062C5.19092 5.51562 5.6167 4.57031 6.42139 3.80469C7.22607 3.03906 8.19092 2.65625 9.31592 2.65625C9.34717 2.65625 9.37842 2.65625 9.40967 2.65625C9.44092 2.65625 9.46436 2.65625 9.47998 2.65625C9.51123 2.65625 9.53857 2.65625 9.56201 2.65625C9.58545 2.65625 9.61279 2.65625 9.64404 2.65625C10.769 2.65625 11.7339 3.03906 12.5386 3.80469C13.3433 4.57031 13.769 5.50781 13.8159 6.61719V6.64062C13.8159 6.70312 13.812 6.78125 13.8042 6.875C13.7964 6.96875 13.7925 7.05469 13.7925 7.13281C13.7925 8.22656 13.9292 9.28125 14.2026 10.2969C14.4761 11.3125 14.8628 12.2656 15.3628 13.1562L15.3159 13.0859H3.64404Z" fill="#526484"/>
</svg>
